<svg width="97" height="75" viewBox="0 0 97 75" fill="none" xmlns="http://www.w3.org/2000/svg">
<rect x="33.5" y="1.5" width="28" height="72" rx="14" fill="white" stroke="black" stroke-width="3"/>
<rect x="1.5" y="20.5" width="93.3818" height="33.6036" rx="16.8018" fill="white" stroke="black" stroke-width="3"/>
<circle cx="19.5" cy="36.5" r="6" fill="white" stroke="black" stroke-width="3"/>
<circle cx="76.5" cy="36.5" r="6" fill="white" stroke="black" stroke-width="3"/>
<path d="M41.7536 44.49C41.7536 44.854 41.8403 45.1747 42.0136 45.452C42.2043 45.7293 42.4383 45.9633 42.7156 46.154C43.0103 46.3273 43.3309 46.466 43.6776 46.57C44.0416 46.6567 44.3969 46.7 44.7436 46.7C45.8009 46.7 46.6156 46.466 47.1876 45.998C47.7596 45.53 48.1843 44.8973 48.4616 44.1C48.7389 43.3027 48.9036 42.3927 48.9556 41.37C49.0076 40.3473 49.0336 39.2727 49.0336 38.146C49.0336 37.2273 49.0249 36.248 49.0076 35.208C49.0076 34.1507 48.9989 33.1627 48.9816 32.244C48.9816 31.308 48.9729 30.502 48.9556 29.826C48.9556 29.15 48.9556 28.7253 48.9556 28.552C48.9556 28.396 48.8689 28.2833 48.6956 28.214C48.5396 28.1273 48.3489 28.0667 48.1236 28.032C47.8983 27.9973 47.6556 27.98 47.3956 27.98C47.1356 27.9627 46.9189 27.954 46.7456 27.954C46.5549 27.954 46.3469 27.9107 46.1216 27.824C45.8963 27.72 45.7836 27.5467 45.7836 27.304C45.7836 27.0093 45.9049 26.8273 46.1476 26.758C46.3903 26.6887 46.5896 26.654 46.7456 26.654H51.8676C52.4223 26.654 52.7776 26.706 52.9336 26.81C53.1069 26.914 53.1936 27.0787 53.1936 27.304C53.1936 27.5467 53.0809 27.72 52.8556 27.824C52.6476 27.9107 52.4396 27.954 52.2316 27.954C52.1796 27.954 52.0843 27.9627 51.9456 27.98C51.8069 27.98 51.6596 27.9973 51.5036 28.032C51.3476 28.0667 51.2089 28.136 51.0876 28.24C50.9663 28.3267 50.9056 28.448 50.9056 28.604V40.746C50.9056 43.294 50.3943 45.2007 49.3716 46.466C48.3663 47.7313 46.7803 48.364 44.6136 48.364C43.9896 48.364 43.4089 48.26 42.8716 48.052C42.3343 47.8613 41.8576 47.5927 41.4416 47.246C41.0429 46.8993 40.7309 46.492 40.5056 46.024C40.2803 45.5387 40.1676 45.01 40.1676 44.438C40.1676 43.45 40.3929 42.6527 40.8436 42.046C41.2943 41.4393 41.8749 41.136 42.5856 41.136C42.7243 41.136 42.8716 41.162 43.0276 41.214C43.2009 41.2487 43.3569 41.318 43.4956 41.422C43.6343 41.526 43.7469 41.656 43.8336 41.812C43.9376 41.968 43.9896 42.1587 43.9896 42.384C43.9896 42.696 43.9116 42.9733 43.7556 43.216C43.6169 43.4587 43.3829 43.58 43.0536 43.58C42.7069 43.58 42.4209 43.476 42.1956 43.268C42.0569 43.3547 41.9443 43.5193 41.8576 43.762C41.7883 43.9873 41.7536 44.23 41.7536 44.49Z" fill="black"/>
</svg>
